<?xml version="1.0" standalone="no"?>
<!DOCTYPE svg PUBLIC "-//W3C//DTD SVG 20010904//EN"
 "http://www.w3.org/TR/2001/REC-SVG-20010904/DTD/svg10.dtd">
<svg version="1.0" xmlns="http://www.w3.org/2000/svg"
 width="250.000000pt" height="250.000000pt" viewBox="0 0 250.000000 250.000000"
 preserveAspectRatio="xMidYMid meet">

<g transform="translate(0.000000,250.000000) scale(0.100000,-0.100000)"
fill="#000000" stroke="none">
<path d="M854 2003 c-37 -65 -109 -190 -161 -278 -51 -89 -93 -167 -93 -173 0
-7 72 -139 161 -292 l161 -280 331 0 332 0 130 227 c72 125 145 253 163 285
l33 58 -117 203 c-65 111 -138 238 -164 282 l-47 80 -330 3 -331 2 -68 -117z
m454 -15 c8 -8 12 -64 12 -185 0 -109 4 -173 10 -173 6 0 10 59 10 158 0 166
4 182 45 182 43 0 45 -10 45 -292 0 -208 3 -268 13 -268 6 0 30 45 52 101 44
109 61 132 97 127 19 -2 23 -9 22 -38 -1 -45 -95 -360 -118 -395 -30 -45 -70
-55 -231 -55 -155 0 -179 6 -222 52 -11 12 -26 41 -32 63 -14 53 -15 579 -1
606 15 26 66 26 80 -1 6 -12 11 -66 10 -123 -2 -162 3 -137 9 46 6 175 9 186
53 187 42 0 48 -23 48 -191 0 -104 3 -158 10 -154 6 4 10 75 10 179 0 95 3
176 7 179 11 11 58 8 71 -5z"/>
</g>
</svg>
